HIERARCHY
ROOT Hips
{
	OFFSET 0.000000 88.474243 0.000000
	CHANNELS 6 Xposition Yposition Zposition Zrotation Yrotation Xrotation 
	JOINT Hips_Spine
	{
		OFFSET 0.000000 0.000000 0.000000
		CHANNELS 3 Zrotation Yrotation Xrotation
		JOINT Spine
		{
			OFFSET 0.005100 8.711998 -0.691000
			CHANNELS 3 Zrotation Yrotation Xrotation
			JOINT Spine1
			{
				OFFSET -0.009200 8.660301 -1.275000
				CHANNELS 3 Zrotation Yrotation Xrotation
				JOINT Spine2
				{
					OFFSET 0.006300 9.852501 -1.857000
					CHANNELS 3 Zrotation Yrotation Xrotation
					JOINT Spine2_Neck
					{
						OFFSET 0.000000 0.000000 0.000000
						CHANNELS 3 Zrotation Yrotation Xrotation
						JOINT Neck
						{
							OFFSET 0.016300 11.420799 -0.263300
							CHANNELS 3 Zrotation Yrotation Xrotation
							End Site #name: Head
							{
								OFFSET -0.019200 9.262405 2.362500
							}
						}
					}
					JOINT Spine2_LeftShoulder
					{
						OFFSET 0.000000 0.000000 0.000000
						CHANNELS 3 Zrotation Yrotation Xrotation
						JOINT LeftShoulder
						{
							OFFSET 5.616900 6.732201 -0.345700
							CHANNELS 3 Zrotation Yrotation Xrotation
							JOINT LeftArm
							{
								OFFSET 10.664888 -0.183372 -2.440700
								CHANNELS 3 Zrotation Yrotation Xrotation
								JOINT LeftForeArm
								{
									OFFSET 27.459126 0.000000 0.000000
									CHANNELS 3 Zrotation Yrotation Xrotation
									End Site #name: LeftHand
									{
										OFFSET 21.306858 0.000000 0.000000
									}
								}
							}
						}
					}
					JOINT Spine2_RightShoulder
					{
						OFFSET 0.000000 0.000000 0.000000
						CHANNELS 3 Zrotation Yrotation Xrotation
						JOINT RightShoulder
						{
							OFFSET -5.580300 6.737503 -0.344400
							CHANNELS 3 Zrotation Yrotation Xrotation
							JOINT RightArm
							{
								OFFSET -10.679335 -0.188484 -2.383900
								CHANNELS 3 Zrotation Yrotation Xrotation
								JOINT RightForeArm
								{
									OFFSET -27.503529 0.000000 0.000000
									CHANNELS 3 Zrotation Yrotation Xrotation
									End Site #name: RightHand
									{
										OFFSET -21.306808 0.000000 0.000000
									}
								}
							}
						}
					}
				}
			}
		}
	}
	JOINT Hips_LeftUpLeg
	{
		OFFSET 0.000000 0.000000 0.000000
		CHANNELS 3 Zrotation Yrotation Xrotation
		JOINT LeftUpLeg
		{
			OFFSET 6.857700 -6.739601 0.312100
			CHANNELS 3 Zrotation Yrotation Xrotation
			JOINT LeftLeg
			{
				OFFSET -0.367590 -34.731552 -4.572400
				CHANNELS 3 Zrotation Yrotation Xrotation
				End Site #name: LeftFoot
				{
					OFFSET 0.367590 -34.656704 -6.067400
				}
			}
		}
	}
	JOINT Hips_RightUpLeg
	{
		OFFSET 0.000000 0.000000 0.000000
		CHANNELS 3 Zrotation Yrotation Xrotation
		JOINT RightUpLeg
		{
			OFFSET -6.876100 -6.733299 0.301000
			CHANNELS 3 Zrotation Yrotation Xrotation
			JOINT RightLeg
			{
				OFFSET 0.347353 -34.795158 -4.515900
				CHANNELS 3 Zrotation Yrotation Xrotation
				End Site #name: RightFoot
				{
					OFFSET -0.347353 -34.589367 -6.070300
				}
			}
		}
	}
}
MOTION
Frames: 18
Frame Time: 0.041667
2.965769 -1.471992 13.375611 -2.428508 19.884012 -6.695224 0.000000 0.000000 0.000000 0.236763 -0.705982 2.802500 -0.222066 -1.212503 5.607340 0.000000 0.000000 0.000000 -0.222066 -1.212498 5.607339 -1.795026 -0.346418 15.160353 -0.222066 -1.212498 5.607339 -7.920056 -10.530469 2.168185 -61.393093 6.756425 23.614409 179.409992 -80.479221 176.769568 -0.222066 -1.212498 5.607339 14.722492 8.305113 2.548495 55.924322 2.779200 44.818527 -153.932546 64.557134 113.640614 0.000000 0.000000 0.000000 9.620830 12.323682 -12.848593 22.303620 15.976801 53.115145 0.000000 0.000000 0.000000 7.739536 -3.184422 -17.728547 -2.841850 -4.653043 27.925729 
3.177611 -1.603851 14.673538 -1.892517 19.018646 -6.496065 0.000000 0.000000 0.000000 0.251589 -0.697999 2.821216 -0.325792 -1.164108 5.645312 0.000000 0.000000 0.000000 -0.325791 -1.164104 5.645315 -2.045229 -0.170492 15.425845 -0.325791 -1.164104 5.645315 -8.167182 -10.361725 2.172932 -61.520462 6.947374 23.243582 179.415812 -80.404460 176.664676 -0.325791 -1.164104 5.645315 14.552714 8.648548 2.604149 55.897796 3.156688 44.843852 -153.644543 65.434759 116.769206 0.000000 0.000000 0.000000 8.003650 10.518764 -15.443423 18.004117 12.101939 54.198324 0.000000 0.000000 0.000000 7.431418 -3.404544 -17.077775 -2.337481 -3.684290 28.865332 
3.412533 -1.607223 15.924073 -1.169170 17.999089 -6.140667 0.000000 0.000000 0.000000 0.156976 -0.607152 2.817787 -0.448761 -1.013196 5.638360 0.000000 0.000000 0.000000 -0.448759 -1.013201 5.638362 -2.216438 -0.069043 15.729669 -0.448759 -1.013201 5.638362 -8.397915 -10.366024 2.202243 -61.564311 7.106224 23.049995 179.428248 -80.266926 176.523164 -0.448759 -1.013201 5.638362 14.466523 8.854575 2.638309 55.860840 3.269380 44.648428 -153.804659 66.087259 120.125443 0.000000 0.000000 0.000000 6.103629 8.298883 -17.654916 17.925951 12.060101 54.217043 0.000000 0.000000 0.000000 6.851476 -3.575465 -16.249581 -1.680309 -2.626266 29.101949 
3.640219 -1.497314 17.100098 -0.330156 16.623384 -5.707384 0.000000 0.000000 0.000000 -0.017739 -0.428233 2.810825 -0.600719 -0.718457 5.623798 0.000000 0.000000 0.000000 -0.600720 -0.718451 5.623798 -2.357408 0.010111 15.962600 -0.600720 -0.718451 5.623798 -8.603288 -10.398000 2.232592 -61.504157 7.249786 22.973122 179.435976 -80.078661 176.483753 -0.600720 -0.718451 5.623798 14.366659 8.998228 2.657327 55.896085 3.232581 44.452442 -154.443869 66.589270 123.453635 0.000000 0.000000 0.000000 3.934974 6.029012 -19.566327 20.135407 14.367370 52.959724 0.000000 0.000000 0.000000 6.109046 -3.470641 -15.319526 -0.957815 -1.521164 28.882507 
3.776230 -1.374664 18.208771 0.556894 15.035712 -5.276566 0.000000 0.000000 0.000000 -0.220954 -0.227973 2.816136 -0.788537 -0.374798 5.633563 0.000000 0.000000 0.000000 -0.788536 -0.374792 5.633563 -2.520399 0.126036 16.058958 -0.788536 -0.374792 5.633563 -8.770204 -10.334193 2.242762 -61.390614 7.423833 22.854372 179.420261 -79.845584 176.784311 -0.788536 -0.374792 5.633563 14.211994 9.177319 2.677540 56.060844 3.243669 44.375883 -155.058549 67.125689 126.983720 0.000000 0.000000 0.000000 1.630615 3.901261 -21.458080 21.805795 17.004129 50.794146 0.000000 0.000000 0.000000 5.319106 -3.176075 -14.440201 -0.231458 -0.398214 28.642970 
3.829100 -1.355476 19.311356 1.467087 13.515595 -4.860498 0.000000 0.000000 0.000000 -0.424926 -0.078422 2.827541 -1.021493 -0.111221 5.655560 0.000000 0.000000 0.000000 -1.021493 -0.111225 5.655560 -2.723566 0.296287 16.020747 -1.021493 -0.111225 5.655560 -8.899224 -10.164582 2.230991 -61.289476 7.722195 22.573092 179.363049 -79.556898 177.691170 -1.021493 -0.111225 5.655560 14.034632 9.428883 2.709975 56.380589 3.394919 44.365187 -154.805686 67.844183 131.377871 0.000000 0.000000 0.000000 -0.642319 1.941894 -23.547361 21.362800 18.512584 47.819326 0.000000 0.000000 0.000000 4.529925 -2.936350 -13.772349 0.495778 0.734552 28.754232 
3.797287 -1.437545 20.465592 2.401901 12.190986 -4.395834 0.000000 0.000000 0.000000 -0.655373 0.004751 2.820688 -1.300976 0.030409 5.641327 0.000000 0.000000 0.000000 -1.300976 0.030405 5.641326 -2.949590 0.479662 15.842623 -1.300976 0.030405 5.641326 -9.017146 -9.942555 2.209089 -61.224768 8.237608 22.109899 179.256599 -79.254069 179.297265 -1.300976 0.030405 5.641326 13.884398 9.686597 2.746180 56.873115 3.621508 44.284430 -153.624050 68.814717 136.693529 0.000000 0.000000 0.000000 -2.827496 0.144162 -25.588586 18.681715 18.703919 43.430824 0.000000 0.000000 0.000000 3.723819 -2.874273 -13.368770 1.240880 1.861581 29.234924 
3.683878 -1.512565 21.679734 3.327998 10.988743 -3.784092 0.000000 0.000000 0.000000 -0.923880 0.055117 2.772370 -1.608778 0.114312 5.544261 0.000000 0.000000 0.000000 -1.608781 0.114309 5.544264 -3.172862 0.607279 15.456337 -1.608781 0.114309 5.544264 -9.174578 -9.668744 2.182866 -61.162877 8.995228 21.490626 179.107697 -79.068697 -178.627919 -1.608781 0.114309 5.544264 13.777287 9.832713 2.763506 57.556750 3.814485 44.045799 -152.874692 70.202493 141.680526 0.000000 0.000000 0.000000 -4.888976 -1.447767 -26.910514 14.638614 18.448892 36.640132 0.000000 0.000000 0.000000 2.927570 -2.943974 -13.109711 2.009734 2.984933 29.693708 
3.517330 -1.529052 22.942093 4.173282 9.764537 -3.002664 0.000000 0.000000 0.000000 -1.207811 0.114154 2.678093 -1.907702 0.227639 5.354719 0.000000 0.000000 0.000000 -1.907701 0.227641 5.354725 -3.382707 0.634217 14.779869 -1.907701 0.227641 5.354725 -9.431758 -9.260446 2.144829 -61.036158 9.944065 20.709330 178.932661 -79.145616 -176.515527 -1.907701 0.227641 5.354725 13.691584 9.807089 2.747864 58.431722 3.947584 43.625559 -153.074943 72.407417 145.897221 0.000000 0.000000 0.000000 -6.801204 -2.715490 -27.430472 10.588296 18.638313 27.770419 0.000000 0.000000 0.000000 2.237246 -3.081877 -12.819774 2.795397 4.153036 29.752389 
3.329826 -1.531807 24.276215 4.827216 8.468938 -2.154058 0.000000 0.000000 0.000000 -1.448686 0.190681 2.556097 -2.158799 0.397143 5.108581 0.000000 0.000000 0.000000 -2.158799 0.397144 5.108581 -3.582221 0.563576 13.805789 -2.158799 0.397144 5.108581 -9.833168 -8.641455 2.083926 -60.784301 11.011244 19.735130 178.756048 -79.520864 -174.699624 -2.158799 0.397144 5.108581 13.595541 9.662731 2.706560 59.464343 4.080226 42.969049 -149.879191 75.730157 153.663616 0.000000 0.000000 0.000000 -8.564849 -3.581623 -28.265508 7.616206 19.200568 19.575566 0.000000 0.000000 0.000000 1.776195 -3.311034 -12.305870 3.577131 5.422279 29.268802 
3.104548 -1.560371 25.744202 5.251970 7.191284 -1.379560 0.000000 0.000000 0.000000 -1.630723 0.270740 2.435165 -2.346380 0.584684 4.863807 0.000000 0.000000 0.000000 -2.346381 0.584684 4.863815 -3.774986 0.427071 12.617480 -2.346381 0.584684 4.863815 -10.376876 -7.840122 2.000824 -60.391800 12.155144 18.584164 178.604139 -80.084373 -173.265162 -2.346381 0.584684 4.863815 13.474811 9.507609 2.660206 60.588343 4.262580 41.940970 -134.696623 79.625220 173.527401 0.000000 0.000000 0.000000 -9.015944 -3.784237 -28.839128 5.187037 19.992549 12.265697 0.000000 0.000000 0.000000 1.569064 -3.675423 -11.365230 4.299589 6.791083 28.245280 
2.856193 -1.657180 27.399979 5.458111 6.031147 -0.799050 0.000000 0.000000 0.000000 -1.720982 0.336390 2.336377 -2.487980 0.743284 4.663487 0.000000 0.000000 0.000000 -2.487980 0.743280 4.663485 -3.959453 0.252265 11.320681 -2.487980 0.743280 4.663485 -11.001066 -6.985503 1.909152 -59.898454 13.360135 17.356715 178.480820 -80.665637 -172.162538 -2.487980 0.743280 4.663485 13.341495 9.407271 2.624146 61.703721 4.478986 40.450368 -103.206867 82.414411 -150.195259 0.000000 0.000000 0.000000 -9.227579 -3.625376 -29.857287 3.230054 19.244441 7.007694 0.000000 0.000000 0.000000 1.538841 -4.154611 -10.057526 4.913701 8.133331 27.151702 
2.599701 -1.809806 29.263901 5.602303 4.983183 -0.445634 0.000000 0.000000 0.000000 -1.772738 0.388163 2.263023 -2.614208 0.864345 4.514577 0.000000 0.000000 0.000000 -2.614207 0.864343 4.514575 -4.133696 0.051543 9.980002 -2.614207 0.864343 4.514575 -11.614357 -6.209210 1.822515 -59.373083 14.580085 16.187626 178.330911 -81.166810 -171.346770 -2.614207 0.864343 4.514575 13.216493 9.364232 2.600817 62.680275 4.710923 38.681256 -63.135502 82.143214 -105.323652 0.000000 0.000000 0.000000 -9.532370 -3.387593 -32.397175 2.604809 16.789433 6.308707 0.000000 0.000000 0.000000 1.505652 -4.634992 -8.634168 5.395952 9.227500 26.441843 
2.372727 -1.998901 31.346848 5.801861 3.982205 -0.262830 0.000000 0.000000 0.000000 -1.820576 0.441556 2.207814 -2.737004 0.978575 4.402173 0.000000 0.000000 0.000000 -2.737005 0.978575 4.402170 -4.298366 -0.167261 8.627944 -2.737005 0.978575 4.402170 -12.159241 -5.556276 1.745237 -58.869991 15.691483 15.164218 178.101946 -81.637997 -170.800156 -2.737005 0.978575 4.402170 13.097778 9.374965 2.589108 63.418070 5.031637 37.146455 -29.675475 77.877582 -67.382334 0.000000 0.000000 0.000000 -9.600195 -3.146499 -34.500873 2.341151 14.982650 6.652998 0.000000 0.000000 0.000000 1.386452 -4.993278 -7.381841 5.792728 9.907083 26.497587 
2.211271 -2.190033 33.678131 6.032742 2.936448 -0.213072 0.000000 0.000000 0.000000 -1.876528 0.512579 2.168137 -2.847125 1.124790 4.320450 0.000000 0.000000 0.000000 -2.847127 1.124789 4.320454 -4.446832 -0.395186 7.311018 -2.847127 1.124789 4.320454 -12.653672 -4.994212 1.674684 -58.398732 16.516857 14.297600 177.882863 -82.254940 -170.493283 -2.847127 1.124789 4.320454 12.958406 9.454109 2.588608 63.965163 5.548338 36.309038 -12.043304 70.137940 -45.943404 0.000000 0.000000 0.000000 -9.451511 -2.869430 -35.203127 2.201613 14.830959 6.450222 0.000000 0.000000 0.000000 1.209341 -5.151791 -6.265945 6.138778 10.196443 27.242541 
2.139505 -2.332321 36.296463 6.182613 1.751883 -0.396804 0.000000 0.000000 0.000000 -1.923321 0.615054 2.145409 -2.944870 1.312822 4.272671 0.000000 0.000000 0.000000 -2.944868 1.312822 4.272672 -4.555085 -0.627174 6.124569 -2.944868 1.312822 4.272672 -13.170834 -4.502365 1.614381 -57.925004 16.912483 13.580982 177.828893 -83.227143 -170.234911 -2.944868 1.312822 4.272672 12.796360 9.576447 2.593872 64.542475 6.165544 35.976947 -7.200062 60.353954 -37.838574 0.000000 0.000000 0.000000 -9.328584 -2.503287 -34.936090 2.584469 16.269709 6.932328 0.000000 0.000000 0.000000 1.012638 -5.077325 -4.994842 6.359277 10.186197 28.210304 
2.158158 -2.364334 39.224564 6.316821 0.496385 -0.924556 0.000000 0.000000 0.000000 -1.981713 0.725599 2.126956 -3.056143 1.499485 4.233772 0.000000 0.000000 0.000000 -3.056143 1.499485 4.233772 -4.593280 -0.860352 5.210726 -3.056143 1.499485 4.233772 -13.767126 -4.127480 1.579960 -57.411142 16.854432 13.076801 177.575696 -84.670434 -169.213154 -3.056143 1.499485 4.233772 12.682144 9.639676 2.593252 65.352752 6.451972 35.168816 -6.557668 50.208322 -33.712817 0.000000 0.000000 0.000000 -9.570444 -2.108799 -33.725300 3.307311 18.096972 7.944857 0.000000 0.000000 0.000000 0.717419 -4.741955 -3.500407 6.250345 9.729864 29.086022 
2.265751 -2.251060 42.450394 6.651448 -0.613201 -1.704679 0.000000 0.000000 0.000000 -2.087731 0.797654 2.079602 -3.201721 1.597401 4.138250 0.000000 0.000000 0.000000 -3.201719 1.597399 4.138250 -4.553186 -1.081781 4.699540 -3.201719 1.597399 4.138250 -14.401800 -3.934828 1.583816 -56.889908 16.449692 12.926799 175.737538 -86.430756 -165.762676 -3.201719 1.597399 4.138250 12.722811 9.549185 2.580210 66.330786 5.895586 32.833968 -5.065823 41.142345 -27.726746 0.000000 0.000000 0.000000 -10.272048 -1.704936 -31.342144 3.747691 19.417805 8.208140 0.000000 0.000000 0.000000 0.214829 -4.139300 -2.170093 5.735534 8.689917 29.887464 
